<?xml version="1.0" encoding="UTF-8"?>
<svg id="katman_2" data-name="katman 2" xmlns="http://www.w3.org/2000/svg" viewBox="0 0 1854.72 1025.65">
  <defs>
    <style>
      .cls-1 {
        fill-rule: evenodd;
      }

      .cls-1, .cls-2 {
        fill: #e10b17;
      }
    </style>
  </defs>
  <g id="katman_1" data-name="katman 1">
    <g>
      <g>
        <path class="cls-1" d="M996.34,92.17h77.86c76.78-.17,91.17,22.89,91.47,67.94v593.89h-63.73l.45-562.01c0-23.05-1.76-41.91-39.65-41.91h-47.56c-25.86,0-47.02,18.86-47.02,41.91l-.12,562.01h-62.81l-.05-580.6c0-43.56,39.94-81.23,91.16-81.23"/>
        <path class="cls-1" d="M777.1,92.17c42.26,0,90.52,32.98,90.52,71.69.42,3.13.64,6.31.64,9.54l.83,580.6h-63.74l-.07-562.01c0-23.05-21.16-41.91-47.02-41.91h-51.68c-25.86,0-35.52,12.42-35.52,35.47l.81,568.45h-63.73V92.25l168.96-.07Z"/>
        <path class="cls-1" d="M449,90.44H146.95c-21.39,0-44.24,15.4-44.24,34.22v238.31h346.29v-56.87H167.13v-138.11c0-10.56,9.82-19.2,21.82-19.2h260.05v-58.35Z"/>
        <path class="cls-1" d="M102.71,391.03v238.31c0,18.83,19.5,34.22,40.89,34.22h305.41v-58.34H188.96c-12,0-21.82-8.64-21.82-19.2v-138.11h281.87v-56.87H102.71Z"/>
        <path class="cls-1" d="M1550.09,92.24v661.76h-63.73V169.91c0-11.91-10.97-21.57-24.52-21.57h-163.48v-56.09h251.73Z"/>
        <path class="cls-1" d="M1838.8,92.24v56.09h-163.49c-13.54,0-24.51,9.66-24.51,21.57v584.09h-63.73V92.24h251.73Z"/>
        <rect class="cls-2" x="1298.35" y="0" width="540.45" height="56.09"/>
        <rect class="cls-2" x="509.1" y="92.24" width="63.74" height="661.76"/>
        <path class="cls-1" d="M1198.92,754h69.39l.11-635.15c-.03-1.04-.08-2.08-.14-3.11h0c-.06-1.04-.14-2.07-.22-3.1h0c-1.06-12.09-4.19-23.98-9.25-35.27-.42-.92-.83-1.84-1.28-2.75-.43-.91-.89-1.81-1.35-2.71h0c-.46-.9-.94-1.8-1.42-2.69h0c-.49-.89-.98-1.77-1.5-2.65-.51-.87-1.04-1.75-1.57-2.61h0c-.54-.86-1.08-1.72-1.64-2.57h0c-.56-.85-1.13-1.7-1.71-2.53h0c-.58-.84-1.17-1.67-1.77-2.49-.6-.83-1.21-1.65-1.84-2.46-.62-.81-1.26-1.61-1.9-2.41h0c-.65-.8-1.3-1.59-1.97-2.37-.67-.78-1.34-1.56-2.03-2.33-.69-.77-1.38-1.54-2.09-2.29-.71-.75-1.43-1.5-2.15-2.23h0c-.73-.74-1.47-1.47-2.21-2.2-.75-.72-1.5-1.43-2.27-2.14h0c-.77-.71-1.54-1.41-2.32-2.1-.79-.69-1.58-1.37-2.39-2.04h0c-.81-.68-1.62-1.34-2.44-2h0c-.82-.66-1.65-1.3-2.49-1.94-.84-.64-1.68-1.27-2.54-1.89h0c-.85-.62-1.72-1.24-2.59-1.84h0c-.87-.61-1.75-1.2-2.64-1.79h0c-.89-.59-1.78-1.17-2.69-1.73h0c-.9-.57-1.81-1.13-2.73-1.68-.93-.55-1.86-1.08-2.79-1.61h0c-.93-.53-1.89-1.06-2.83-1.56h0c-.95-.51-1.92-1.01-2.88-1.5h0c-.97-.49-1.94-.98-2.92-1.45-.98-.47-1.98-.93-2.97-1.38-1-.45-2-.89-3-1.32h0c-1.01-.43-2.03-.85-3.05-1.26h0c-1.02-.41-2.05-.81-3.08-1.2-1.03-.39-2.08-.76-3.13-1.13-1.05-.37-2.1-.72-3.16-1.06h0c-1.05-.34-2.12-.67-3.19-1-1.07-.32-2.15-.63-3.23-.93-1.08-.3-2.17-.58-3.27-.86-1.1-.28-2.19-.54-3.3-.79-4.45-1.01-8.97-1.82-13.5-2.45-1.14-.15-2.3-.3-3.44-.43h0c-1.16-.13-2.31-.25-3.47-.35h0c-1.15-.1-2.32-.19-3.49-.27-1.17-.08-2.34-.15-3.52-.2-1.17-.06-2.36-.09-3.54-.12-2.41-.05-4.81-.04-7.2-.04h-131.1c-55.53,0-102.85,42.27-102.85,42.27-.73-.74-1.47-1.47-2.21-2.19-.76-.72-1.5-1.43-2.27-2.14h0c-.77-.71-1.54-1.41-2.32-2.1h0c-7.27-6.4-12.56-11.34-21.76-16.54h0c-.94-.53-1.88-1.06-2.84-1.56h0c-.95-.51-1.92-1.01-2.88-1.5h0c-.97-.49-1.94-.98-2.92-1.45-.98-.47-1.97-.93-2.97-1.38-15.18-6.87-31.83-11.25-48.84-12.77h0c-1.16-.1-2.33-.19-3.5-.27-1.17-.08-2.34-.15-3.52-.2-1.18-.06-2.36-.09-3.54-.12-1.19-.03-2.37-.04-3.56-.04h-7.29l-272.71.7c0,20.48,0,41.23,0,62.19,2.76-.17,5.54-.27,8.35-.27h268.56c45.99,0,86.11,23.24,105.96,57.03,20.49-33.52,54.7-57.03,100.5-57.03h99.04c59.32,0,107.42,42.33,107.42,94.54v596.85Z"/>
        <path class="cls-1" d="M140.52,0h308.49v62.37H149.99c-44.47,0-80.85,32.02-80.85,71.15v486.95c0,39.14,24.63,74.67,69.1,74.67h310.76v58.85H140.52c-76.25,0-138.62-54.89-138.62-121.99V121.99C1.89,54.9,64.27,0,140.52,0"/>
      </g>
      <g>
        <path d="M79.82,997.9c7.37,0,14.16-.86,20.39-2.58,6.22-1.72,12.03-3.64,17.44-5.77,2.29-.98,3.89-1.14,4.79-.49.9.66,1.6,1.64,2.09,2.95l6.39,14c1.14,2.3,1.55,3.89,1.23,4.79-.33.9-1.15,1.76-2.46,2.58-8.35,4.91-17.28,8.19-26.77,9.83-9.5,1.63-18.67,2.46-27.51,2.46-24.89,0-43.68-7.2-56.36-21.61-12.69-14.4-19.04-36.1-19.04-65.08,0-13.59,1.88-25.95,5.65-37.09,3.76-11.13,9-20.63,15.72-28.49,6.71-7.86,14.82-13.96,24.31-18.3,9.49-4.33,20.05-6.51,31.68-6.51,7.37,0,14.94.65,22.72,1.96,7.78,1.31,15.68,4.1,23.7,8.35,1.31.66,2.17,1.43,2.58,2.33.41.9.12,2.5-.86,4.79l-6.88,14.24c-.66,1.64-1.31,2.7-1.97,3.19-.65.49-1.88.33-3.68-.49-5.4-2.13-10.93-3.81-16.58-5.04-5.65-1.23-11.58-1.84-17.81-1.84-8.19,0-15.27,1.72-21.24,5.16-5.98,3.44-10.89,8.07-14.74,13.88-3.85,5.81-6.71,12.52-8.6,20.14-1.88,7.61-2.82,15.52-2.82,23.7s.77,15.84,2.33,22.96c1.55,7.12,4.17,13.35,7.86,18.66,3.69,5.32,8.68,9.54,14.98,12.65,6.3,3.11,14.12,4.67,23.45,4.67Z"/>
        <path d="M493.48,929.87l18.91-38.81,18.42-36.35c.82-1.47,1.6-2.49,2.33-3.07.74-.57,1.92-.86,3.56-.86h23.82c1.47,0,2.29.37,2.46,1.1.16.74.08,1.52-.24,2.33l-55.01,102.41v61.89c0,1.8-.33,2.99-.98,3.56-.65.58-1.88.86-3.69.86h-20.38c-1.64,0-2.83-.28-3.56-.86-.74-.57-1.1-1.76-1.1-3.56v-61.65l-56.24-102.41c-.33-.82-.33-1.63,0-2.46.32-.82,1.14-1.23,2.46-1.23h24.81c1.8,0,3.07.29,3.8.86.74.58,1.51,1.68,2.33,3.32l19.16,37.58,17.93,37.33h1.23Z"/>
        <path d="M965.42,928.64c4.58,1.8,8.6,4.22,12.04,7.25,3.44,3.03,6.22,6.43,8.35,10.19,2.13,3.77,3.72,7.78,4.79,12.04,1.06,4.26,1.6,8.6,1.6,13.02,0,7.7-1.52,14.74-4.54,21.12-3.03,6.39-7.12,11.87-12.28,16.46-5.16,4.58-11.22,8.1-18.18,10.56-6.96,2.46-14.45,3.69-22.47,3.69h-59.93c-5.24,0-8.84-1.1-10.81-3.32-1.96-2.21-2.95-5.77-2.95-10.68v-144.17c0-4.74.98-8.27,2.95-10.56,1.96-2.29,5.56-3.44,10.81-3.44l56.98-.25c7.53,0,14.57.82,21.12,2.46,6.55,1.64,12.16,4.18,16.82,7.61,4.67,3.44,8.35,7.86,11.05,13.26,2.7,5.4,4.05,11.87,4.05,19.4s-1.84,14.04-5.52,20.02c-3.69,5.98-8.31,10.52-13.88,13.63v1.72ZM891,917.59h39.79c2.29,0,4.79-.29,7.49-.86,2.7-.57,5.2-1.63,7.49-3.19,2.29-1.55,4.17-3.68,5.65-6.39,1.47-2.7,2.21-6.26,2.21-10.68,0-5.89-1.93-10.56-5.77-14-3.85-3.44-9.05-5.16-15.6-5.16h-41.26v40.28ZM961.24,969.16c0-7.86-2.5-14.29-7.49-19.28-5-4.99-12.32-7.49-21.98-7.49h-40.77v53.54h40.53c5.89,0,10.72-.86,14.49-2.58,3.77-1.72,6.79-3.89,9.09-6.51,2.29-2.62,3.89-5.52,4.79-8.72.9-3.19,1.35-6.18,1.35-8.96Z"/>
        <path d="M1415.89,1021.46c-.66.99-2.05,1.49-4.18,1.49h-69.99c-8.68,0-15.8-1.23-21.37-3.69-5.57-2.46-10.03-5.73-13.39-9.82-3.36-4.09-5.69-8.76-7-14-1.31-5.24-1.96-10.72-1.96-16.46v-84c0-5.73.77-11.26,2.33-16.58,1.55-5.32,4.09-10.03,7.61-14.12,3.52-4.09,8.06-7.37,13.63-9.82,5.57-2.46,12.28-3.68,20.14-3.68h68.52c2.13,0,3.48.45,4.05,1.35.57.9.86,2.33.86,4.3v15.47c0,2.13-.29,3.56-.86,4.3-.58.74-1.93,1.1-4.05,1.1h-65.33c-6.22,0-10.6,1.39-13.14,4.18-2.54,2.78-3.81,6.8-3.81,12.03v25.79h74.17c2.13,0,3.48.41,4.05,1.23.57.82.86,2.38.86,4.66v13.51c0,1.96-.29,3.4-.86,4.3-.57.9-1.93,1.35-4.05,1.35h-74.17v35.69c0,5.21,1.35,9.17,4.05,11.85,2.7,2.69,7,4.04,12.89,4.04h66.8c2.29,0,3.72.41,4.3,1.24.57.83.86,2.4.86,4.71v15.37c0,1.82-.33,3.23-.98,4.22Z"/>
        <path d="M1854.53,1017.79c.33,1.15.25,2.3-.24,3.44-.49,1.15-1.47,1.72-2.95,1.72h-21.86c-1.31,0-2.62-.2-3.93-.61-1.31-.41-2.3-1.51-2.95-3.32l-11.79-45.43c-2.46-8.68-5.98-14.57-10.56-17.69-4.59-3.11-11.22-4.66-19.89-4.66h-28.98v66.55c0,2.3-.37,3.73-1.1,4.3-.74.58-2.25.86-4.54.86h-19.16c-1.8,0-3.19-.33-4.17-.98-.98-.65-1.47-2.04-1.47-4.18v-153.25c0-4.75.98-8.27,2.95-10.56,1.96-2.29,5.56-3.44,10.81-3.44h57.96c8.19,0,15.63,1.19,22.35,3.56,6.71,2.38,12.44,5.77,17.19,10.19,4.75,4.42,8.39,9.66,10.93,15.72,2.54,6.06,3.8,12.77,3.8,20.14,0,9.66-2.33,18.05-7,25.17-4.66,7.12-10.77,12.24-18.3,15.35v.98c5.73,2.46,9.98,5.81,12.77,10.07,2.78,4.26,4.99,9.33,6.63,15.23l13.51,50.84ZM1816.46,901.62c0-2.46-.37-5.07-1.1-7.86-.74-2.78-2.09-5.4-4.05-7.86-1.96-2.46-4.66-4.46-8.1-6.02-3.44-1.55-7.95-2.33-13.51-2.33h-38.07v48.63h36.35c9.99,0,17.23-2.37,21.74-7.12,4.5-4.75,6.75-10.56,6.75-17.44Z"/>
      </g>
    </g>
  </g>
</svg>