<?xml version="1.0" encoding="UTF-8"?>
<svg id="katman_2" data-name="katman 2" xmlns="http://www.w3.org/2000/svg" xmlns:xlink="http://www.w3.org/1999/xlink" viewBox="0 0 2711.26 2773.64">
  <defs>
    <style>
      .cls-1 {
        fill: url(#Adsız_degrade_16-2);
      }

      .cls-2 {
        clip-path: url(#clippath-6);
      }

      .cls-3 {
        clip-path: url(#clippath-7);
      }

      .cls-4 {
        fill: url(#Adsız_degrade_16-4);
      }

      .cls-5 {
        clip-path: url(#clippath-4);
      }

      .cls-6 {
        fill: url(#Adsız_degrade_16-3);
      }

      .cls-7 {
        fill: url(#Adsız_degrade_19-4);
      }

      .cls-7, .cls-8, .cls-9, .cls-10, .cls-11 {
        isolation: isolate;
      }

      .cls-7, .cls-10, .cls-11 {
        opacity: .3;
      }

      .cls-12 {
        fill: url(#Adsız_degrade_3);
      }

      .cls-13 {
        clip-path: url(#clippath-9);
      }

      .cls-14 {
        fill: url(#Adsız_degrade_19);
      }

      .cls-15, .cls-8, .cls-9 {
        fill: #fff;
      }

      .cls-16 {
        fill: url(#Adsız_degrade_10-3);
      }

      .cls-17 {
        fill: url(#Adsız_degrade_20);
      }

      .cls-18 {
        fill: url(#Adsız_degrade_9);
      }

      .cls-19 {
        fill: none;
      }

      .cls-20 {
        fill: url(#Adsız_degrade_19-3);
      }

      .cls-8 {
        opacity: .48;
      }

      .cls-21 {
        clip-path: url(#clippath-1);
      }

      .cls-22 {
        fill: url(#Adsız_degrade_10-2);
      }

      .cls-23 {
        clip-path: url(#clippath-5);
      }

      .cls-24 {
        fill: url(#Adsız_degrade);
      }

      .cls-25 {
        clip-path: url(#clippath-8);
      }

      .cls-26 {
        fill: url(#Adsız_degrade_7);
      }

      .cls-27 {
        fill: url(#Adsız_degrade_7-2);
      }

      .cls-9 {
        opacity: .5;
      }

      .cls-28 {
        clip-path: url(#clippath-3);
      }

      .cls-29 {
        fill: url(#Adsız_degrade_9-2);
      }

      .cls-10 {
        fill: url(#Adsız_degrade_16-5);
      }

      .cls-11 {
        fill: url(#Adsız_degrade_22);
      }

      .cls-30 {
        fill: url(#Adsız_degrade_10);
      }

      .cls-31 {
        fill: url(#Adsız_degrade_19-2);
      }

      .cls-32 {
        clip-path: url(#clippath-2);
      }

      .cls-33 {
        fill: url(#Adsız_degrade_21);
      }

      .cls-34 {
        fill: url(#Adsız_degrade_16);
      }

      .cls-35 {
        fill: url(#Adsız_degrade_10-4);
      }

      .cls-36 {
        clip-path: url(#clippath);
      }

      .cls-37 {
        fill: #f4f7fa;
      }
    </style>
    <linearGradient id="Adsız_degrade" data-name="Adsız degrade" x1="2173.28" y1="2514" x2="1651.76" y2="1674.21" gradientTransform="translate(0 2799.28) scale(1 -1)" gradientUnits="userSpaceOnUse">
      <stop offset="0" stop-color="#fcb148"/>
      <stop offset=".05" stop-color="#fdba46"/>
      <stop offset=".14" stop-color="#ffc244"/>
      <stop offset=".32" stop-color="#ffc444"/>
      <stop offset=".48" stop-color="#fdb946"/>
      <stop offset=".78" stop-color="#f99c4d"/>
      <stop offset=".87" stop-color="#f8924f"/>
      <stop offset="1" stop-color="#f8924f"/>
    </linearGradient>
    <clipPath id="clippath">
      <path class="cls-19" d="M1608.3,1738.11c-40.61-117.32-82.91-296.74-40.01-497.39,49.25-230.4,165.82-278.22,267.18-525.29,162.58-396.29,31.39-684.41,124.36-713.22,96.77-29.99,340.63,250.6,339.01,554.82-1.5,281.74-212.98,479.95-233.86,498.95-161.05,146.59-289.4,118-391.12,256.44-97.77,133.05-87.14,306.33-65.56,425.69Z"/>
    </clipPath>
    <clipPath id="clippath-1">
      <path class="cls-19" d="M1608.3,1738.11c-40.61-117.32-82.91-296.74-40.01-497.39,49.25-230.4,165.82-278.22,267.18-525.29,162.58-396.29,31.39-684.41,124.36-713.22,96.77-29.99,340.63,250.6,339.01,554.82-1.5,281.74-212.98,479.95-233.86,498.95-161.05,146.59-289.4,118-391.12,256.44-97.77,133.05-87.14,306.33-65.56,425.69Z"/>
    </clipPath>
    <clipPath id="clippath-2">
      <path class="cls-19" d="M1608.3,1738.11c-40.61-117.32-82.91-296.74-40.01-497.39,49.25-230.4,165.82-278.22,267.18-525.29,162.58-396.29,31.39-684.41,124.36-713.22,96.77-29.99,340.63,250.6,339.01,554.82-1.5,281.74-212.98,479.95-233.86,498.95-161.05,146.59-289.4,118-391.12,256.44-97.77,133.05-87.14,306.33-65.56,425.69Z"/>
    </clipPath>
    <clipPath id="clippath-3">
      <path class="cls-19" d="M1608.3,1738.11c-40.61-117.32-82.91-296.74-40.01-497.39,49.25-230.4,165.82-278.22,267.18-525.29,162.58-396.29,31.39-684.41,124.36-713.22,96.77-29.99,340.63,250.6,339.01,554.82-1.5,281.74-212.98,479.95-233.86,498.95-161.05,146.59-289.4,118-391.12,256.44-97.77,133.05-87.14,306.33-65.56,425.69Z"/>
    </clipPath>
    <linearGradient id="Adsız_degrade_10" data-name="Adsız degrade 10" x1="2328.85" y1="2354.97" x2="1911.69" y2="1110.3" gradientTransform="translate(0 2799.28) scale(1 -1)" gradientUnits="userSpaceOnUse">
      <stop offset="0" stop-color="#aa80f9"/>
      <stop offset="1" stop-color="#6165d7"/>
    </linearGradient>
    <clipPath id="clippath-4">
      <path class="cls-19" d="M1613.39,1685.99c-23.3-83.52-45.81-215.47,10.51-341.78,98.26-220.36,325.88-175.53,512.47-420.45,150.5-197.54,81.82-330.9,257.21-470.36,125.88-100.09,291.36-134.87,315.04-98.49,25.46,39.11-140.36,118.4-215.8,314.41-98.16,255.06,74.63,401.39-29.91,561.3-79.51,121.63-209.12,82.32-491.7,219.36-164.29,79.67-284.08,172.29-357.82,236.02Z"/>
    </clipPath>
    <clipPath id="clippath-5">
      <path class="cls-19" d="M1613.39,1685.99c-23.3-83.52-45.81-215.47,10.51-341.78,98.26-220.36,325.88-175.53,512.47-420.45,150.5-197.54,81.82-330.9,257.21-470.36,125.88-100.09,291.36-134.87,315.04-98.49,25.46,39.11-140.36,118.4-215.8,314.41-98.16,255.06,74.63,401.39-29.91,561.3-79.51,121.63-209.12,82.32-491.7,219.36-164.29,79.67-284.08,172.29-357.82,236.02Z"/>
    </clipPath>
    <clipPath id="clippath-6">
      <path class="cls-19" d="M1613.39,1685.99c-23.3-83.52-45.81-215.47,10.51-341.78,98.26-220.36,325.88-175.53,512.47-420.45,150.5-197.54,81.82-330.9,257.21-470.36,125.88-100.09,291.36-134.87,315.04-98.49,25.46,39.11-140.36,118.4-215.8,314.41-98.16,255.06,74.63,401.39-29.91,561.3-79.51,121.63-209.12,82.32-491.7,219.36-164.29,79.67-284.08,172.29-357.82,236.02Z"/>
    </clipPath>
    <clipPath id="clippath-7">
      <path class="cls-19" d="M1613.39,1685.99c-23.3-83.52-45.81-215.47,10.51-341.78,98.26-220.36,325.88-175.53,512.47-420.45,150.5-197.54,81.82-330.9,257.21-470.36,125.88-100.09,291.36-134.87,315.04-98.49,25.46,39.11-140.36,118.4-215.8,314.41-98.16,255.06,74.63,401.39-29.91,561.3-79.51,121.63-209.12,82.32-491.7,219.36-164.29,79.67-284.08,172.29-357.82,236.02Z"/>
    </clipPath>
    <clipPath id="clippath-8">
      <path class="cls-19" d="M1613.39,1685.99c-23.3-83.52-45.81-215.47,10.51-341.78,98.26-220.36,325.88-175.53,512.47-420.45,150.5-197.54,81.82-330.9,257.21-470.36,125.88-100.09,291.36-134.87,315.04-98.49,25.46,39.11-140.36,118.4-215.8,314.41-98.16,255.06,74.63,401.39-29.91,561.3-79.51,121.63-209.12,82.32-491.7,219.36-164.29,79.67-284.08,172.29-357.82,236.02Z"/>
    </clipPath>
    <linearGradient id="Adsız_degrade_3" data-name="Adsız degrade 3" x1="2604.44" y1="1670.57" x2="1378.55" y2="663.58" gradientTransform="translate(0 2799.28) scale(1 -1)" gradientUnits="userSpaceOnUse">
      <stop offset="0" stop-color="#e38ddd"/>
      <stop offset="1" stop-color="#9571f6"/>
    </linearGradient>
    <clipPath id="clippath-9">
      <path class="cls-19" d="M1602.58,1614.07c46.75-40.18,118.91-95.62,215.81-144.98,225.66-114.93,340-71.8,463.29-178.49,151.57-131.16,122.11-320.39,171.86-319.19,73.15,1.78,220.17,412.86,40.94,584.69-114.79,110.05-322.36,82.61-364.73,75.87-100.31-15.95-127.53-51.41-229.18-64.66-123.62-16.12-229.54,17.28-297.99,46.75Z"/>
    </clipPath>
    <linearGradient id="Adsız_degrade_10-2" data-name="Adsız degrade 10" x1="238.01" y1="953.19" x2="2466.34" y2="953.19" xlink:href="#Adsız_degrade_10"/>
    <linearGradient id="Adsız_degrade_7" data-name="Adsız degrade 7" x1="520.32" y1="148.18" x2="669.41" y2="487.28" gradientTransform="translate(0 2799.28) scale(1 -1)" gradientUnits="userSpaceOnUse">
      <stop offset="0" stop-color="#ffc444"/>
      <stop offset="1" stop-color="#f36f56"/>
    </linearGradient>
    <linearGradient id="Adsız_degrade_9" data-name="Adsız degrade 9" x1="978.54" y1="327.63" x2="2467.77" y2="327.63" gradientTransform="translate(0 2799.28) scale(1 -1)" gradientUnits="userSpaceOnUse">
      <stop offset=".49" stop-color="#eaedf3"/>
      <stop offset="1" stop-color="#fff"/>
    </linearGradient>
    <linearGradient id="Adsız_degrade_7-2" data-name="Adsız degrade 7" x1="942.11" y1="326.91" x2="2494.33" y2="326.91" xlink:href="#Adsız_degrade_7"/>
    <linearGradient id="Adsız_degrade_10-3" data-name="Adsız degrade 10" x1="743.17" y1="1152.28" x2="471.31" y2="236.54" xlink:href="#Adsız_degrade_10"/>
    <linearGradient id="Adsız_degrade_9-2" data-name="Adsız degrade 9" y1="778.91" y2="778.91" xlink:href="#Adsız_degrade_9"/>
    <linearGradient id="Adsız_degrade_10-4" data-name="Adsız degrade 10" x1="942.11" y1="774.25" x2="2494.33" y2="774.25" xlink:href="#Adsız_degrade_10"/>
    <linearGradient id="Adsız_degrade_16" data-name="Adsız degrade 16" x1="1186.76" y1="1114.53" x2="1026.38" y2="1047.16" gradientTransform="translate(0 2799.28) scale(1 -1)" gradientUnits="userSpaceOnUse">
      <stop offset="0" stop-color="#40447e"/>
      <stop offset="1" stop-color="#3c3b6b"/>
    </linearGradient>
    <linearGradient id="Adsız_degrade_16-2" data-name="Adsız degrade 16" x1="971.04" y1="1889.66" x2="792.9" y2="1814.84" xlink:href="#Adsız_degrade_16"/>
    <linearGradient id="Adsız_degrade_16-3" data-name="Adsız degrade 16" x1="223.96" y1="1845.38" x2="1835.29" y2="1845.38" xlink:href="#Adsız_degrade_16"/>
    <linearGradient id="Adsız_degrade_19" data-name="Adsız degrade 19" x1="1359.29" y1="2167.46" x2="453.95" y2="1431.55" gradientTransform="translate(0 2799.28) scale(1 -1)" gradientUnits="userSpaceOnUse">
      <stop offset="0" stop-color="#ff9085"/>
      <stop offset="1" stop-color="#fb6fbb"/>
    </linearGradient>
    <linearGradient id="Adsız_degrade_16-4" data-name="Adsız degrade 16" x1="223.96" y1="1185.5" x2="2504.65" y2="1185.5" xlink:href="#Adsız_degrade_16"/>
    <linearGradient id="Adsız_degrade_16-5" data-name="Adsız degrade 16" x1="447.62" y1="1206.2" x2="2118.67" y2="1206.2" xlink:href="#Adsız_degrade_16"/>
    <linearGradient id="Adsız_degrade_19-2" data-name="Adsız degrade 19" x1="1470.16" y1="2086.03" x2="586.84" y2="1368.02" xlink:href="#Adsız_degrade_19"/>
    <linearGradient id="Adsız_degrade_19-3" data-name="Adsız degrade 19" x1="2303.7" y1="585.92" x2="1886.82" y2="19.71" xlink:href="#Adsız_degrade_19"/>
    <linearGradient id="Adsız_degrade_19-4" data-name="Adsız degrade 19" x1="2303.7" y1="585.92" x2="1886.82" y2="19.71" xlink:href="#Adsız_degrade_19"/>
    <linearGradient id="Adsız_degrade_20" data-name="Adsız degrade 20" x1="2031.73" y1="1025.3" x2="2143.71" y2="492.32" gradientTransform="translate(0 2799.28) scale(1 -1)" gradientUnits="userSpaceOnUse">
      <stop offset="0" stop-color="#a1f094"/>
      <stop offset="1" stop-color="#4fc3ba"/>
    </linearGradient>
    <linearGradient id="Adsız_degrade_21" data-name="Adsız degrade 21" x1="2321.28" y1="893.52" x2="2106.55" y2="601.86" gradientTransform="translate(0 2799.28) scale(1 -1)" gradientUnits="userSpaceOnUse">
      <stop offset="0" stop-color="#311944"/>
      <stop offset="1" stop-color="#6b3976"/>
    </linearGradient>
    <linearGradient id="Adsız_degrade_22" data-name="Adsız degrade 22" x1="1993.62" y1="1017.29" x2="2105.6" y2="484.32" gradientTransform="translate(0 2799.28) scale(1 -1)" gradientUnits="userSpaceOnUse">
      <stop offset="0" stop-color="#38e8c7"/>
      <stop offset="1" stop-color="#425f63"/>
    </linearGradient>
  </defs>
  <g id="katman_1" data-name="katman 1">
    <g id="Illustration">
      <g>
        <path class="cls-37" d="M1394.25,29.87C701.95,8.85,102.27,525.44,11.67,1203.27c-99.06,741.11,446.15,1407.93,1117.01,1514.74,834.44,132.84,1643.79-635.67,1571.12-1469.39C2645.05,620.47,2097.99,51.24,1394.25,29.87Z"/>
        <g>
          <g>
            <path id="SVGID" class="cls-24" d="M1608.3,1738.11c-40.61-117.32-82.91-296.74-40.01-497.39,49.25-230.4,165.82-278.22,267.18-525.29,162.58-396.29,31.39-684.41,124.36-713.22,96.77-29.99,340.63,250.6,339.01,554.82-1.5,281.74-212.98,479.95-233.86,498.95-161.05,146.59-289.4,118-391.12,256.44-97.77,133.05-87.14,306.33-65.56,425.69Z"/>
            <g class="cls-36">
              <path class="cls-9" d="M1612.26,2001.6c-79.76-319.87-64.94-595.45,44.05-819.07,65.85-135.1,152.18-223.64,228.35-301.75,92.26-94.6,171.93-176.31,203.18-315.39,44.23-196.84-31.2-421.87-224.18-668.84l3.15-2.46c193.76,247.95,269.44,474.1,224.93,672.17-31.5,140.19-111.54,222.27-204.22,317.31-75.96,77.9-162.06,166.18-227.63,300.71-108.57,222.76-123.29,497.42-43.76,816.36l-3.88.97Z"/>
            </g>
            <g class="cls-21">
              <path class="cls-9" d="M2075.74,614.56l-.57-3.97c-9.11-64.06-32.13-126.47-66.58-180.49-54.71-85.78-126.63-134.7-177.33-160.63l1.82-3.56c51.14,26.16,123.69,75.51,178.88,162.04,34.04,53.37,57.02,114.87,66.59,178.1,49.49-50.62,88.05-111.98,111.65-177.7,40.74-113.43,30.69-216.01,15.08-282.09l3.89-.92c15.73,66.6,25.85,170-15.21,284.35-24.24,67.5-64.14,130.44-115.39,182.01l-2.83,2.85Z"/>
            </g>
            <g class="cls-32">
              <path class="cls-9" d="M1839.74,933.32l2.56-3.57c24.93-34.76,65.91-107.82,60.34-206.52-5.11-90.46-47.31-154.97-72.01-185.37l3.1-2.52c25,30.78,67.73,96.08,72.9,187.66,5.46,96.66-33.18,169.01-58.55,205.49,99.3-10.14,194.77-43.16,276.37-95.63,186.97-120.22,253.1-308.83,272.86-384.34l3.86,1.01c-19.87,75.96-86.41,265.71-274.56,386.69-83.32,53.57-181.01,87-282.49,96.68l-4.37.42Z"/>
            </g>
            <g class="cls-28">
              <path class="cls-9" d="M1639.05,1229.02l-.1-1.99c-2.29-46.39-2.29-93.39,0-139.7,4.93-99.78,20.61-199.71,46.6-297.02l3.86,1.03c-25.91,97.04-41.54,196.69-46.46,296.19-2.25,45.51-2.28,91.7-.1,137.31,110.11-5.26,215.63-30.89,313.67-76.2,221.73-102.49,342.89-279.38,395.38-375.7l3.51,1.91c-52.72,96.76-174.44,274.45-397.21,377.42-99.1,45.8-205.8,71.59-317.15,76.66l-1.99.09Z"/>
            </g>
          </g>
          <g>
            <path id="SVGID-2" data-name="SVGID" class="cls-30" d="M1613.39,1685.99c-23.3-83.52-45.81-215.47,10.51-341.78,98.26-220.36,325.88-175.53,512.47-420.45,150.5-197.54,81.82-330.9,257.21-470.36,125.88-100.09,291.36-134.87,315.04-98.49,25.46,39.11-140.36,118.4-215.8,314.41-98.16,255.06,74.63,401.39-29.91,561.3-79.51,121.63-209.12,82.32-491.7,219.36-164.29,79.67-284.08,172.29-357.82,236.02Z"/>
            <g class="cls-5">
              <path class="cls-9" d="M1574.74,1976.73h-3.99c.32-305.06,75.45-524.03,223.3-650.86,70.32-60.32,138.46-85.01,204.35-108.88,80.99-29.35,157.5-57.07,227.91-148.39,62.95-81.64,74.68-154.19,87.11-231.01,11.45-70.77,23.29-143.96,74.78-232.08,77.21-132.16,207.26-234.01,386.53-302.73l1.43,3.73c-178.4,68.39-307.77,169.67-384.51,301.02-51.11,87.48-62.89,160.29-74.28,230.7-12.51,77.33-24.33,150.37-87.89,232.81-71.13,92.25-148.16,120.16-229.71,149.71-65.56,23.75-133.35,48.31-203.11,108.16-146.93,126.03-221.58,343.99-221.9,647.82Z"/>
            </g>
            <g class="cls-23">
              <path class="cls-9" d="M2327.09,779.81l-1.88-5.23c-17.39-48.4-25.33-98.43-23.6-148.7,4.06-118.5,61.56-205.68,95.48-247.1l3.09,2.53c-33.6,41.03-90.56,127.38-94.58,244.7-1.64,47.95,5.6,95.69,21.53,141.97,27.18-73,67.75-125.77,120.64-156.87,55.57-32.67,106.19-31.25,159.78-29.74,33.13.93,67.39,1.9,103.28-5.83,109.89-23.68,206.53-124.38,287.26-299.3l3.63,1.67c-81.28,176.11-178.86,277.57-290.04,301.53-36.36,7.84-70.88,6.86-104.24,5.92-53-1.5-103.07-2.91-157.65,29.19-53.32,31.35-93.98,85.19-120.82,160.02l-1.88,5.23Z"/>
            </g>
            <g class="cls-2">
              <path class="cls-9" d="M2203.04,1099.91l-.32-2.08c-6.93-45.35-11.19-91.54-12.64-137.28-3.12-97.74,6.33-196.23,28.08-292.72l3.9.88c-21.68,96.16-31.09,194.31-27.99,291.72,1.43,44.89,5.57,90.2,12.28,134.72,66.12-14.03,127.49-40.7,182.42-79.29,83.53-58.68,131.8-131.47,157.58-182.21l3.56,1.81c-25.99,51.14-74.64,124.52-158.84,183.66-55.96,39.3-118.53,66.34-185.97,80.37l-2.06.43Z"/>
            </g>
            <g class="cls-3">
              <path class="cls-9" d="M2247.46,1300.75c-16.51,0-33.34-.56-50.48-1.73-82.93-5.69-164.39-25.39-242.09-58.56l-2.81-1.2,2.23-2.09c39.96-37.55,71.04-84.31,89.87-135.21,15.45-41.75,22.77-85.66,21.77-130.5l4-.09c1.01,45.35-6.4,89.75-22.02,131.97-18.7,50.54-49.32,97.03-88.66,134.64,76.45,32.27,156.51,51.46,237.99,57.06,181.47,12.45,328.63-45.01,420.13-95.41l1.93,3.5c-83.32,45.9-212.6,97.63-371.85,97.63Z"/>
            </g>
            <g class="cls-25">
              <path class="cls-9" d="M2075.61,1477.63c-21.92-26.65-69.83-73.93-144.42-91.05-130.7-30.01-232.92,58.17-244.14,68.33l-3.63,3.28.29-4.88c2.83-46.99,11.65-93.29,26.22-137.61,24.68-75.05,64.98-143.15,119.79-202.41l2.93,2.71c-54.42,58.84-94.43,126.45-118.93,200.95-13.97,42.49-22.62,86.81-25.72,131.81,22.15-18.85,120.51-94.43,244.07-66.07,75.74,17.39,124.36,65.36,146.61,92.41l-3.08,2.53Z"/>
            </g>
          </g>
          <g>
            <path id="SVGID-3" data-name="SVGID" class="cls-12" d="M1602.58,1614.07c46.75-40.18,118.91-95.62,215.81-144.98,225.66-114.93,340-71.8,463.29-178.49,151.57-131.16,122.11-320.39,171.86-319.19,73.15,1.78,220.17,412.86,40.94,584.69-114.79,110.05-322.36,82.61-364.73,75.87-100.31-15.95-127.53-51.41-229.18-64.66-123.62-16.12-229.54,17.28-297.99,46.75Z"/>
            <g class="cls-13">
              <g>
                <path class="cls-9" d="M1547.04,1649.44l-2.44-3.16c133.83-103.51,267.51-154.96,397.38-152.82,70.01,1.14,124.42,17.19,172.42,31.36,63.17,18.65,117.73,34.73,183.71,7.59,84.24-34.67,148.59-124.31,181.2-252.42,52.24-205.26-63.41-376.6-100.09-424.23l3.16-2.44c36.97,47.99,153.48,220.65,100.8,427.65-32.92,129.36-98.11,219.97-183.54,255.12-67.28,27.69-122.46,11.4-186.36-7.45-47.75-14.09-101.88-30.06-171.35-31.19-128.87-2.15-261.78,49.04-394.87,151.98Z"/>
                <path class="cls-9" d="M2435.63,1399.14l.75-3.94c11.14-58.82,11.14-118.36,0-176.95-12.27-64.56-38.61-127.39-76.18-181.67l3.28-2.27c37.88,54.74,64.44,118.08,76.82,183.19,10.98,57.77,11.22,116.45.74,174.47,31.58-16.24,74.26-45.74,105.4-95.99,66.4-107.14,27.91-225.05,19.52-247.6l3.74-1.39c8.5,22.86,47.51,142.38-19.87,251.1-32.83,52.98-78.27,83.23-110.61,99.27l-3.6,1.78Z"/>
                <path class="cls-9" d="M2351.23,1622.97c-41.31,0-85.86-5.68-131.73-20.54-55.81-18.07-107.23-47.4-152.85-87.15l-4.57-3.98,6.04.49c87.63,7.01,169.73-32.02,214.19-101.92,47.49-74.66,31.8-154.88,25.86-177.69l3.86-1.01c6.04,23.2,22,104.81-26.36,180.84-44.24,69.55-124.99,109.14-211.86,104.17,44.07,37.41,93.47,65.14,146.92,82.45,152.15,49.28,289.61-3.27,341.64-28.16l1.72,3.6c-36.79,17.59-115.93,48.9-212.86,48.9Z"/>
                <path class="cls-9" d="M2128.99,1720.79c-21.41-45.82-72.36-129.76-173.02-177.15-42.36-19.94-88.18-30.95-136.18-32.74l-.12-3.99c80.37-7.84,138.87-30.58,173.88-67.58,3.15-3.33,7.22-7.94,13.39-14.92,8.29-9.39,20.83-23.57,40.07-44.74,19.21-21.13,38.65-42.12,57.77-62.39l2.91,2.74c-19.11,20.25-38.53,41.22-57.72,62.33-19.23,21.15-31.75,35.32-40.03,44.7-6.19,7.01-10.28,11.64-13.48,15.02-32.45,34.3-84.46,56.55-154.78,66.28,40.66,3.91,79.59,14.53,116,31.67,101.79,47.92,153.29,132.76,174.94,179.06l-3.62,1.69Z"/>
              </g>
            </g>
          </g>
        </g>
        <g>
          <polygon class="cls-22" points="238.01 1666 1293.95 1730.35 2466.34 1662.79 1310.03 2029.39 238.01 1666"/>
          <g>
            <path class="cls-26" d="M1092.79,2773.09l-859.23-335.08c-84.46-22.73-150.09-106.42-150.09-187.58v-.89c0-81.16,65.62-135.61,150.09-120.71l920.08,256.56-60.84,387.7Z"/>
            <g>
              <path class="cls-18" d="M2467.77,2494.22l-1334.57,260.7c-84.88,9.48-154.66-49.71-154.66-132.34v-56.05c0-82.62,69.78-155.16,154.66-161.92l1334.57-217.23c-59.97,111.63-73.8,216.07,0,306.84Z"/>
              <path class="cls-27" d="M2479.57,2509.25l-1335.01,263.06c-110.71,12.55-202.45-64.99-202.45-173.08v-1.19c0-108.1,91.74-203.19,202.45-211.83l1335.01-215.09c8.16-.64,14.76,6.16,14.76,15.17s-6.6,16.86-14.76,17.52l-1335.01,219.73c-89.06,7.25-162.6,83.87-162.6,170.69v1.18c0,86.82,73.54,149.37,162.6,139.57l1335.01-258.43c8.16-.9,14.76,5.68,14.76,14.7s-6.6,17.07-14.76,17.99Z"/>
            </g>
          </g>
          <g>
            <path class="cls-16" d="M1128.03,2386.31l-894.47-257.47c-84.46-14.9-150.09-125.61-150.09-247.47v-1.34c0-121.86,65.62-218.56,150.09-215.42l947.6,143.8-53.14,577.9Z"/>
            <g>
              <path class="cls-29" d="M2467.77,2147.47l-1258.62,205.84c-126.16,9.51-230.6-83.18-230.6-207.24v-84.16c0-124.06,104.45-227.48,230.6-230.92l1258.62-144.23c-60.16,167.27-73.6,323.91,0,460.72Z"/>
              <path class="cls-35" d="M2479.57,2171.12l-1335.01,215.09c-110.71,8.64-202.45-116.26-202.45-278.56v-1.78c0-162.31,91.74-296.64,202.45-299.39l1335.01-143.05c8.16-.2,14.76,10.6,14.76,24.14s-6.6,24.7-14.76,24.95l-1335.01,150.02c-89.06,2.67-162.6,110.93-162.6,241.29v1.78c0,130.36,73.54,231.06,162.6,224.57l1335.01-208.12c8.16-.59,14.76,9.9,14.76,23.43s-6.6,25.02-14.76,25.65Z"/>
            </g>
          </g>
          <path class="cls-9" d="M857.03,2264.18l-207.36-56.13c-43.62-119.06-40.34-228.43,0-359.15l207.36,36.76c-38.29,137.56-32.49,262.15,0,378.51Z"/>
        </g>
        <g>
          <path class="cls-34" d="M2504.65,1595.01l-2280.69-22v65.09c0,17.67,9.95,32.69,23.42,35.36l644.91,128.17c7.65,1.52,15.42,1.93,23.14,1.2l1564.44-146.13c13.97-1.3,24.78-16.37,24.78-34.52v-27.17Z"/>
          <g>
            <path class="cls-1" d="M1770.47,1489.5l-1521.41,119.07c-27.22,2.13-49.36-20.51-49.36-50.57V353.52c0-30.06,22.14-54.44,49.36-54.44h1521.41c22.43,0,40.56,22.03,40.56,49.21v1088.82c0,27.18-18.13,50.63-40.56,52.38Z"/>
            <path class="cls-6" d="M1794.73,1489.5l-1521.41,119.07c-27.22,2.13-49.36-20.51-49.36-50.57V353.52c0-30.06,22.14-54.44,49.36-54.44h1521.41c22.43,0,40.56,22.03,40.56,49.21v1088.82c0,27.18-18.13,50.63-40.56,52.38Z"/>
            <path class="cls-14" d="M1747.33,1412.73l-1417.03,103.43c-22.16,1.62-40.16-16.96-40.16-41.51V420.14c0-24.54,18-44.52,40.16-44.62l1417.03-6.49c18.5-.09,33.47,17.97,33.47,40.32v960.47c0,22.35-14.97,41.57-33.47,42.92Z"/>
            <path class="cls-15" d="M1087.75,332.03c0,11.19-7.83,20.29-17.5,20.32-9.68.03-17.54-9.03-17.54-20.25s7.86-20.32,17.54-20.32c9.67,0,17.5,9.06,17.5,20.25Z"/>
            <path class="cls-8" d="M1428.17,1159.15c-117.29-69.89-209.51,18.67-298.51-68.7-53.96-52.97-27.47-92.47-93.86-171.63-73.54-87.67-121.41-58.2-195.32-137.11-93.45-99.77-46.71-177.4-127.2-249.03-97.65-86.9-202.96-6.47-295.91-89.81-40.09-35.95-62.09-88.2-73.58-143.78h-90.95c-15.94,0-28.88,14.3-28.88,31.95v1248.54c0,17.65,12.94,30.94,28.88,29.68l1550.56-121.89c7.61-.6,14.36-5.52,18.69-12.65-113.5-4.58-183.24-46.72-227.81-90.28-87.2-85.22-72.08-169.26-166.11-225.29Z"/>
          </g>
          <path class="cls-4" d="M1756.76,1484.1l-1532.8,125.33,668.33,132.82c7.65,1.52,15.42,1.93,23.14,1.2l1589.22-148.45-723.5-110.06c-8.09-1.23-16.25-1.52-24.38-.85Z"/>
          <polygon class="cls-10" points="447.62 1612.58 1723.72 1506.68 2118.67 1566.28 853.55 1679.47 447.62 1612.58"/>
          <g>
            <polygon class="cls-15" points="1668.3 775.7 1386.21 630.01 1090.3 477.17 459.29 803.09 461.3 804.03 461.3 815.6 1090.91 1112.41 1667.73 787.23 1667.73 776.18 1667.44 776.19 1668.3 775.7"/>
            <path class="cls-15" d="M1456.71,943.34l-366.41,207.18-402.83-188.35v272.51c0,44.67,34.01,82,78.49,86.06,72.07,6.58,186.92,13.07,315.31,5.16,124.99-7.7,234.46-27.39,302.44-42.03,42.6-9.17,72.99-46.85,72.99-90.43v-250.11h0Z"/>
            <path class="cls-15" d="M1667.95,1200.48c-4.06.22-3.71-3.39-3.71-7.83v-391.45c0-8.85-8.24-14.47-16.36-14.28l-553.3,12.98c-4.42.1-8.01-3.64-8.01-8.27s3.59-8.54,8.01-8.63l553.3-12.3c16.25-.36,23.78,12.62,23.78,30.32v391.22c0,4.43.35,8.01-3.71,8.23Z"/>
            <path class="cls-31" d="M1679.7,780.54c-3.76-7.27,1.5-10.57-8.04-10.36l-577.09,12.83c-4.42.1-8.01,4-8.01,8.63s3.59,8.37,8.01,8.27l553.3-12.98c4.51-.11,9.05,1.58,12.2,4.61l7.66-4.32,11.97-6.69Z"/>
            <path class="cls-15" d="M1685.56,1118.22l-7.22-11.79c-2.39-4.49-7.36-7.07-12.21-6.76-4.85.31-9.52,3.51-11.77,8.31l-6.38,12.97c-1.47,3.13-2.53,6.59-2.53,10.05v106.64c0,2.29,11.11,3.5,22.29,2.85,11.16-.65,22.22-3.14,22.22-5.42v-106.58c0-3.68-2.73-7.16-4.39-10.28Z"/>
          </g>
        </g>
        <g>
          <path class="cls-20" d="M2252.65,2135.18c-33.98,29.81-85.22,27.39-116.81-4.94-39.38-40.3-113.24-67.65-245.62,16.12-236.44,149.64,24.89,572.9,174.22,585.27,149.33,12.37,199.11-24.81,273.77,0s180.44-141.23,224-291.54-68.44-328.74-180.44-348.41c-55.12-9.68-96.68,15.04-129.12,43.51Z"/>
          <path class="cls-7" d="M2447.82,2588.53l-56.86,35.16c-56.86,35.16-80.71-101.52-185.26-187.38s-309.99-24.05-298.98-171.65c5.49-73.58,42.43-127.8,78.1-163.68-27.61,8.36-58.97,22.85-94.58,45.38-236.44,149.64,24.89,572.9,174.22,585.27,149.33,12.37,199.11-24.81,273.77,0,64.1,21.3,151.14-98.08,202.04-227.4l-92.45,84.3Z"/>
          <path class="cls-17" d="M2214.23,2160.45s106.88-174.09-73.54-223.86-257.16-116.55-257.16-116.55c0,0,45.62,145.1,78.81,254.22s192.71,133.78,251.89,86.2Z"/>
          <path class="cls-33" d="M2263.46,1957.53c-31.11,3.59-18.67-45.07-48.49-12.6-25.96,28.26-30.54,183.94-31.29,223.83-.1,5.19,3.96,9.5,9.14,9.74h0c5.47.25,10.03-4.12,10.01-9.59-.39-85.77,92.13-182.57,102.11-202.24,10.37-20.45-10.37-12.73-41.48-9.14Z"/>
          <path class="cls-11" d="M2136.96,2059.2c-14.12-78.2-74.66-63.78-197.01-169.55-19.72-17.04-36.13-33.3-49.82-48.6,13.83,44.12,46.7,149.3,72.21,233.21,29.59,97.3,159.63,127.45,229.41,99.1-23.06-20.4-44.16-55.26-54.79-114.15Z"/>
        </g>
      </g>
    </g>
  </g>
</svg>