<?xml version="1.0" encoding="UTF-8"?>
<svg id="katman_1" xmlns="http://www.w3.org/2000/svg" version="1.1" viewBox="0 0 800 800">
  <!-- Generator: Adobe Illustrator 29.8.2, SVG Export Plug-In . SVG Version: 2.1.1 Build 3)  -->
  <defs>
    <style>
      .st0 {
        fill: #2b8c01;
      }
    </style>
  </defs>
  <path class="st0" d="M335.4,465.7h-34.6c-8.1,0-14.6-6.5-14.6-14.6v-124.4c0-41.3,33.4-74.6,74.6-74.6h78.2c41.3,0,74.6,33.4,74.6,74.6v124.4c0,8.1-6.5,14.6-14.6,14.6h-34.6v128.4c0,8.1-6.5,14.6-14.6,14.6h-99.9c-8.1,0-14.6-6.5-14.6-14.6v-128.4Z"/>
  <path class="st0" d="M335.4,454.1h-33.9c-.4,0-.8,0-1.2,0-1.3,0,.2,0,.5,0-.5-.2-1-.2-1.5-.4-1.2-.5.4.2.5.2-.5-.3-1.2-.6-1.7-1,1.7,1.3-.6-1,.7.7-.5-.7-1.4-2.5-.7-.7-.3-.9-.5-2.8-.5-.9,0-.4,0-.7,0-1.1v-1.3c0-18.6,0-37.2,0-55.9v-67.2c0-1.1,0-2.2,0-3.3,0-1.1,0-2.2.2-3.2,0-.5,0-1.1.2-1.6.2-1.8-.3,1.8,0,0,.7-4.3,1.7-8.5,3.1-12.6.3-1,.7-1.9,1.1-2.9.8-2.1-.5,1,.4-1,.9-2,1.9-4,3-5.9,1-1.8,2.1-3.5,3.1-5.2.5-.8,1.2-1.6,1.8-2.5.8-1.1-.2.2-.3.3.4-.5.8-1.1,1.2-1.5,2.7-3.2,5.6-6.2,8.8-9,.8-.7,1.5-1.3,2.3-1.9,1-.8-.2.2-.3.2.4-.3.8-.6,1.2-.9,1.8-1.2,3.6-2.5,5.5-3.5,1.8-1,3.5-2,5.4-2.8.9-.5,1.8-.8,2.8-1.2-1.9.8.9-.3,1.5-.5,4.1-1.5,8.2-2.5,12.5-3.3.8-.2,3.1-.4,1.1-.2,1.1,0,2.2-.2,3.1-.3,1.8-.2,3.6-.2,5.4-.2h78.1c1.8,0,3.6,0,5.4.2,1.1,0,2.2.2,3.1.3-2.2-.2.9.2,1.6.3,4.2.8,8.5,1.9,12.5,3.4.7.2,2.8,1.2,1.1.4.9.4,1.8.8,2.8,1.2,2,.9,3.9,2,5.8,3.1,1.8,1,3.4,2.2,5.1,3.3.4.3.8.6,1.2.9-.2,0-1.4-1.1-.3-.2.9.8,1.8,1.5,2.7,2.2,3.1,2.8,6.1,5.8,8.8,9,.3.4.6.8.9,1.2,0-.2-1-1.4-.3-.3.6.8,1.2,1.6,1.8,2.5,1.2,1.8,2.4,3.7,3.4,5.6,1,1.8,1.8,3.6,2.7,5.5.9,2-.3-1.1.4,1,.4,1.2.8,2.2,1.2,3.4,1.4,4.2,2.4,8.4,2.9,12.7-.3-2,0,.4,0,1.2,0,1.1.2,2.2.2,3.2s0,2.2,0,3.3c0,16.1,0,32.3,0,48.4v77c0-1.9,0,0-.5.9.7-1.8-.2,0-.7.7,0-.2,1.2-1.4.2-.5s1.4-1.1,0,0c-.4.3-.8.5-1.2.8.2,0,1.7-.8.5-.2-.5.2-1,.2-1.5.4.3,0,1.8,0,.5,0h-35.1c-6.2,0-11.5,5.3-11.5,11.5v120.8c0,2.5,0,5,0,7.5,0,.3-.2,3.5,0,1.1,0-3.1,0,0-.2,0,.5.4-.8,1.5,0,0,0,0-1.6,2.8-.8,1.2.8-1.3-1.3.8,0,0,1.5-.8-1.3.8-1.2.8,1.5-.9.4.4,0,0-.3,0-.6.2-1,.2q1.4-.2,0,0h-91.4c-3.1,0-6.4.2-9.5,0,2.5.2-2.1-1.3,0,0-.5-.3-1.2-.6-1.7-1,2.2,1.7,0,0,.2-.2,0,0,1.1,1.4-.2-.4-1-1.4.9,1.5,0,0-.4-.5-.5-2.8-.3-.4,0-.2,0-.8,0-1.1v-128.3c0-6.1-5.3-11.9-11.6-11.7-6.2.3-11.5,5.1-11.5,11.5v123.3c0,4.8,0,9.5,1.7,14.1,4.3,11.1,14.5,17.1,26.2,17.1h90.6c4.5,0,9.3.3,13.8-.8,12.2-2.8,19.9-14.1,20-26.3,0-11.2,0-22.4,0-33.7v-93.9l-11.5,11.5h30c6.5,0,12.8-.4,18.5-4,7.8-5,12.1-13.4,12.3-22.5.4-18.3,0-36.6,0-54.9v-65.1c0-11.3-1.2-22.6-5.2-33.3-7-18.5-19.7-34.4-36.7-44.7-13.8-8.3-29.6-12.3-45.7-12.3h-65.4c-10.1,0-19.9,0-29.9,2-39.3,8.1-67.6,44.4-67.8,84.3,0,16.5,0,33.1,0,49.6v68.3c0,2.1,0,4.1,0,6.2.2,9.3,4.7,17.8,12.7,22.8,5.7,3.5,11.9,3.8,18.3,3.8h29.7c6,0,11.8-5.3,11.5-11.5-.3-6.2-5.1-11.5-11.5-11.5h0Z"/>
  <path class="st0" d="M467.8,137.2c0,37.4-30.4,67.8-67.8,67.8s-67.8-30.4-67.8-67.8,30.4-67.8,67.8-67.8,67.8,30.4,67.8,67.8"/>
  <path class="st0" d="M456.3,137.2c0,1.8,0,3.5-.2,5.4,0,.7-.2,1.4-.2,2.1-.3,3.4.2-1.5,0,.6-.5,3.2-1.3,6.4-2.3,9.5-.5,1.6-1.1,3.2-1.8,4.8.8-2.2-.8,1.7-1.2,2.3-1.5,3-3.3,5.8-5.2,8.6-.3.5-1.7,2.2-.3.5-.4.5-.8,1.1-1.2,1.5-1.1,1.3-2.2,2.5-3.4,3.7-.9.9-1.9,1.9-2.8,2.8-.6.5-1.2,1.1-1.8,1.7-.2.2-2.6,2.1-1.5,1.3,1.3-1-1.3.9-1.2.8-.5.4-1.1.8-1.7,1.2-1.4.9-2.8,1.8-4.3,2.6-1.2.6-2.4,1.3-3.6,1.8-.3.2-3.4,1.5-.9.5-.9.4-1.9.8-2.8,1.1-2.9,1-5.9,1.8-8.9,2.5-.7.2-1.4.2-2.1.4-3.3.6,1.5-.2-.5,0-1.9.2-3.8.4-5.8.5-3.2,0-6.4,0-9.6-.4-2.3-.2-.5,0,0,0-.8-.2-1.7-.3-2.5-.5-1.8-.4-3.7-.8-5.5-1.3-1.5-.5-2.9-.9-4.4-1.4-.8-.3-1.6-.6-2.4-.9.5.2,1.9.9,0,0-3-1.5-6-3-8.8-4.8-.5-.4-1.2-.8-1.7-1.2,0,0-2.6-1.9-1.2-.8,1.3,1-1.2-1-1.2-1-.5-.5-1-.8-1.5-1.3-2.5-2.2-4.8-4.6-7-7.1,0,0-2-2.5-1-1.2,1,1.3-.9-1.3-.8-1.2-.8-1.1-1.5-2.2-2.2-3.4-.8-1.5-1.7-2.9-2.5-4.4-.4-.8-2.2-4.9-1.4-2.8-1.2-2.8-2.1-5.8-2.8-8.8-.5-1.7-.8-3.4-1.1-5.1-.5-2.2,0-.5,0,0-.2-1.1-.2-2.1-.3-3.1-.2-3.4-.3-6.8,0-10.2,0-.7.6-5.1.2-2.7.3-1.8.7-3.8,1.2-5.6.8-3,1.7-5.9,2.8-8.8.7-1.8-1.2,2.4.2-.5.3-.6.5-1.2.8-1.8.8-1.7,1.7-3.3,2.7-4.8.8-1.3,1.6-2.5,2.5-3.8.4-.5.8-1.1,1.2-1.6-1.5,2.1.5-.5.7-.8,2-2.5,4.2-4.7,6.6-6.8,1.2-1,2.2-2,3.5-2.9-1.8,1.4,0,0,.5-.3.7-.5,1.4-.9,2.1-1.4,2.8-1.8,5.8-3.4,8.8-4.8.4-.2,2-.8,0,0,.6-.2,1.2-.5,1.9-.8,1.6-.6,3.2-1.2,4.8-1.6,1.5-.5,3-.8,4.5-1.2.8-.2,1.7-.3,2.5-.5,2.5-.5-1.7,0,1.1-.2,3.2-.3,6.4-.5,9.6-.4,1.6,0,3.1.2,4.8.3.6,0,2.9.5.6,0,1,.2,2.1.4,3.1.5,3.5.7,7,1.8,10.4,3,.5.2,2.6,1.1.5.2.9.4,1.8.8,2.8,1.3,1.5.8,3,1.5,4.5,2.4,1.8,1,3.4,2.2,5.1,3.3.4.2,1.8,1.3,0,0,.8.6,1.5,1.2,2.3,1.9,2.8,2.4,5.4,5,7.7,7.8.5.5.8,1,1.2,1.5-1.5-1.9.5.7.6.9,1.1,1.5,2.1,3.1,3,4.7.9,1.6,1.8,3.2,2.6,4.9.3.6.5,1.2.8,1.8-1-2.3.3.8.4,1,1.3,3.5,2.3,7.2,3,10.9.2.7.2,1.4.4,2.1-.5-2.5,0,.5,0,1.1.1,2.2.2,4.3.2,6.5,0,6,5.3,11.8,11.5,11.5,6.2-.3,11.6-5.1,11.5-11.5-.2-33.5-21.4-63.1-52.7-74.7-30.4-11.2-67-1.3-87.4,23.8-21.1,26-24.8,63.1-7,92.1,17.5,28.6,51.3,42.9,84,36.4,36.5-7.1,62.8-40.8,63.1-77.6,0-6-5.3-11.8-11.5-11.5-6.3.2-11.5,5-11.5,11.5h0Z"/>
  <path class="st0" d="M591,519c14.1,6.8,27.8,14.6,40.2,24.2-1.8-1.4-3.6-2.8-5.5-4.2,8.5,6.7,16.4,14.1,23,22.6-1.4-1.8-2.8-3.6-4.2-5.5,4.2,5.5,7.9,11.5,10.7,17.9-.9-2.2-1.8-4.3-2.7-6.5,2.3,5.5,3.9,11.2,4.8,17.1-.3-2.4-.6-4.8-1-7.1.7,5.4.7,10.8,0,16.1.3-2.4.6-4.8,1-7.1-.8,5.8-2.4,11.3-4.6,16.6.9-2.2,1.8-4.3,2.7-6.5-2.8,6.5-6.5,12.5-10.8,18.1,1.4-1.8,2.8-3.6,4.2-5.5-6.7,8.6-14.6,16.1-23.2,22.8,1.8-1.4,3.6-2.8,5.5-4.2-15.8,12.1-33.5,21.6-51.9,29.4,2.2-.9,4.3-1.8,6.5-2.7-35.8,15.1-74,24-112.4,29.2,2.4-.3,4.8-.6,7.1-1-53.2,7.1-107.5,7.1-160.7,0,2.4.3,4.8.6,7.1,1-38.4-5.2-76.6-14.1-112.4-29.2,2.2.9,4.3,1.8,6.5,2.7-18.3-7.8-36.1-17.2-51.9-29.4,1.8,1.4,3.6,2.8,5.5,4.2-8.5-6.7-16.5-14.1-23.2-22.8,1.4,1.8,2.8,3.6,4.2,5.5-4.3-5.6-8-11.7-10.8-18.1.9,2.2,1.8,4.3,2.7,6.5-2.2-5.3-3.8-10.9-4.6-16.6.3,2.4.6,4.8,1,7.1-.7-5.4-.7-10.8,0-16.1-.3,2.4-.6,4.8-1,7.1.8-5.9,2.5-11.6,4.8-17.1-.9,2.2-1.8,4.3-2.7,6.5,2.8-6.5,6.5-12.4,10.7-17.9-1.4,1.8-2.8,3.6-4.2,5.5,6.6-8.5,14.5-16,23-22.6-1.8,1.4-3.6,2.8-5.5,4.2,12.5-9.6,26.1-17.4,40.2-24.2,5.8-2.8,10.7-10.1,12.4-16.1,1.8-6.5,1-15-2.7-20.8-3.7-5.8-9.2-10.8-16.1-12.4-7.4-1.7-13.9-.5-20.8,2.7-19,9.1-36.8,20.3-52.7,34.2-12.6,11.1-24.1,24.8-30.9,40.2-4.6,10.5-7.3,20.1-8.5,31.6-.8,7.7,0,15.1,1.2,22.8,1.8,11.8,6.6,23.4,12.9,33.4,15.1,24.3,38.6,42.7,63.3,56.3,29.7,16.5,62.5,27.8,95.5,35.7,81,19.1,166.9,20.1,248.7,5.5,35.5-6.4,70.2-16.7,103-31.7,25.3-11.5,50.6-27.1,68.9-48.4,17.7-20.4,30.4-46.7,27.1-74.5-1.4-11.5-4.1-21-8.8-31.5-3.8-8.3-8.9-15.5-14.5-22.5-11.8-15-27.3-27.1-43.3-37.2-8.1-5.2-16.7-9.7-25.4-13.8-6.6-3.1-13.5-4.7-20.8-2.7-6.2,1.7-13,6.5-16.1,12.4-6.2,11.9-3.7,30.3,9.8,36.7h0Z"/>
</svg>